<?xml version="1.0" standalone="no"?>
<!DOCTYPE svg PUBLIC "-//W3C//DTD SVG 20010904//EN"
 "http://www.w3.org/TR/2001/REC-SVG-20010904/DTD/svg10.dtd">
<svg version="1.0" xmlns="http://www.w3.org/2000/svg"
 width="340.000000pt" height="340.000000pt" viewBox="0 0 340.000000 340.000000"
 preserveAspectRatio="xMidYMid meet">
<metadata>
Created by potrace 1.14, written by Peter Selinger 2001-2017
</metadata>
<g transform="translate(0.000000,340.000000) scale(0.100000,-0.100000)"
fill="#000000" stroke="none">
<path d="M1450 3379 c-566 -88 -1049 -446 -1285 -954 -57 -122 -127 -340 -139
-435 -4 -25 -10 -72 -15 -104 -9 -65 -8 -359 2 -391 3 -11 8 -41 11 -66 10
-85 25 -144 77 -295 31 -92 106 -252 141 -304 13 -19 27 -42 30 -52 14 -35
137 -186 226 -275 234 -236 532 -397 867 -469 11 -2 40 -7 65 -10 25 -3 61 -9
80 -13 42 -9 335 -7 405 3 586 84 1080 444 1322 965 115 249 164 484 158 761
-4 155 -16 245 -51 382 -155 605 -627 1072 -1239 1227 -44 11 -102 23 -130 26
-27 4 -59 9 -70 12 -44 14 -351 9 -455 -8z"/>
</g>
</svg>
